<?xml version="1.0" encoding="utf-8"?>
<!-- Generator: Adobe Illustrator 22.1.0, SVG Export Plug-In . SVG Version: 6.00 Build 0)  -->
<!DOCTYPE svg PUBLIC "-//W3C//DTD SVG 1.1//EN" "http://www.w3.org/Graphics/SVG/1.1/DTD/svg11.dtd">
<svg version="1.1" id="Слой_1" xmlns="http://www.w3.org/2000/svg" xmlns:xlink="http://www.w3.org/1999/xlink" x="0px" y="0px"
	 viewBox="0 0 199.781 143" style="enable-background:new 0 0 199.781 143;" xml:space="preserve">
<path id="main" d="M159.49,65.847c15.658,14.64,29.217,31.375,40.29,49.73L152.25,143c-0.77-1.2-1.5-2.43-2.29-3.617
	c-1.04-1.551-2-3.151-3.07-4.666c-2.82-3.965-5.79-7.809-8.91-11.532l-0.01,0.011c-0.52-0.615-1.03-1.239-1.54-1.86
	c-10.703-12.481-22.975-23.527-36.51-32.863c-2.02-1.4-4.08-2.754-6.16-4.08l0.05-0.078c-4.79-3.027-9.713-5.842-14.77-8.445
	c-2.19-1.126-4.4-2.21-6.63-3.252l0.11-0.254c-20.63-9.667-42.846-15.503-65.563-17.225c-0.994-0.076-1.973-0.206-2.971-0.268
	c-1.324-0.081-2.654-0.137-3.984-0.2V0c39.188,1.035,72.868,10.06,107.318,28.757v0.01C126.399,38.558,143.97,51.046,159.49,65.847z
	"/>
</svg>
