<svg xmlns="http://www.w3.org/2000/svg" width="232.032" height="77.093" viewBox="0 0 232.032 77.093">
  <metadata><?xpacket begin="﻿" id="W5M0MpCehiHzreSzNTczkc9d"?>
<x:xmpmeta xmlns:x="adobe:ns:meta/" x:xmptk="Adobe XMP Core 5.6-c138 79.159824, 2016/09/14-01:09:01        ">
   <rdf:RDF xmlns:rdf="http://www.w3.org/1999/02/22-rdf-syntax-ns#">
      <rdf:Description rdf:about=""/>
   </rdf:RDF>
</x:xmpmeta>
                                                                                                    
                                                                                                    
                                                                                                    
                                                                                                    
                                                                                                    
                                                                                                    
                                                                                                    
                                                                                                    
                                                                                                    
                                                                                                    
                                                                                                    
                                                                                                    
                                                                                                    
                                                                                                    
                                                                                                    
                                                                                                    
                                                                                                    
                                                                                                    
                                                                                                    
                                                                                                    
                           
<?xpacket end="w"?></metadata>
<defs>
    <style>
      .cls-1 {
        fill-rule: evenodd;
      }
    </style>
  </defs>
  <path id="main" class="cls-1" d="M914.4,260.016A234.162,234.162,0,0,1,974.568,282.8L947.19,330.665c-1.279-.652-2.537-1.349-3.826-1.979-1.683-.823-3.327-1.727-5.03-2.5q-6.682-3.024-13.575-5.506l-0.007.017c-0.762-.271-1.52-0.555-2.278-0.835a192.135,192.135,0,0,0-48.347-10.059c-2.467-.189-4.939-0.325-7.415-0.425v-0.09q-8.538-.306-17.1.14c-2.471.13-4.94,0.313-7.407,0.533l-0.037-.274a188.96,188.96,0,0,0-65.653,18.222c-0.9.437-1.818,0.819-2.716,1.271-1.191.6-2.374,1.224-3.559,1.846l-27.7-47.469c34.553-18.933,68.368-28.14,107.758-29.344v0.013A224.708,224.708,0,0,1,914.4,260.016Z" transform="translate(-742.531 -253.938)"/>
</svg>
